# xmcd
#
# Track frame offsets:
#	150
#	11351
#	32974
#	42768
#	52755
#	64413
#	85216
#	98764
#	112143
#	126651
#	152325
#	166097
#	177964
#	194937
#	209497
#
# Disc length: 2977 seconds
# Revision: 0
# Processed by: cddbd v1.5.2PL0 Copyright (c) Steve Scherf et al.
# Submitted via: dBpowerAMP V12.0
#
DISCID=cf0b9f0f
DTITLE=Mariachi "Arriba Juárez" - El mejor mariachi
DYEAR=2000
DGENRE=Folklore
TTITLE0=Corrido de Jorge Torres
TTITLE1=La malagueña
TTITLE2=Soy del puro Veracruz
TTITLE3=El rey
TTITLE4=Cocula
TTITLE5=Caminos de Michoacán
TTITLE6=Pelea de gallos
TTITLE7=Juan Colorado
TTITLE8=Corrido Monterrey
TTITLE9=El mariachi loco
TTITLE10=Despierta
TTITLE11=Paloma querida
TTITLE12=Deja que salga la Luna
TTITLE13=Corazón, corazón
TTITLE14=El coleadero
EXTD=
EXTT0=
EXTT1=
EXTT2=
EXTT3=
EXTT4=
EXTT5=
EXTT6=
EXTT7=
EXTT8=
EXTT9=
EXTT10=
EXTT11=
EXTT12=
EXTT13=
EXTT14=
PLAYORDER=
